<?xml version="1.0" encoding="utf-8"?>
<!-- Generator: Adobe Illustrator 24.1.2, SVG Export Plug-In . SVG Version: 6.00 Build 0)  -->
<svg version="1.1" xmlns="http://www.w3.org/2000/svg" xmlns:xlink="http://www.w3.org/1999/xlink" x="0px" y="0px"
	 viewBox="0 0 1920 1080" style="enable-background:new 0 0 1920 1080;" xml:space="preserve">
<style type="text/css">
	.st0{font-family:'SegoePrint';}
	.st1{font-size:175.9893px;}
	.st2{font-size:214.8383px;}
	.st3{font-size:200px;}
	.st4{fill:#FFFF00;}
	.st5{fill:none;stroke:#000000;stroke-width:17;stroke-miterlimit:10;}
	.st6{fill:none;stroke:#2F889A;stroke-width:17.1022;stroke-miterlimit:10;}
	.st7{fill:none;stroke:#000000;stroke-width:13.7964;stroke-linecap:round;stroke-miterlimit:10;}
	.st8{stroke:#000000;stroke-width:13.7964;stroke-linecap:round;stroke-miterlimit:10;}
</style>
<g id="Layer_1">
</g>
<g id="Layer_2">
	<text transform="matrix(1 0 0 1 578.7773 513.0547)" class="st0 st1">С</text>
	<text transform="matrix(1 0 0 1 839.834 475.8037)" class="st0 st1">у</text>
	<text transform="matrix(1.1165 0 0 1 1109.6963 518.4307)" class="st0 st2">а</text>
	<text transform="matrix(1 0 0 1 1239.627 511.6113)" class="st0 st3">к</text>
</g>
<g id="Буква_Д">
	<g>
		<path class="st4" d="M1104.5,408.5c-3.3,15.7-6.7,31.3-10,47c-46.7-0.3-93.3-0.7-140-1c3-34.7,6-69.3,9-104
			C1010.5,369.8,1057.5,389.2,1104.5,408.5z"/>
		<g>
			<path class="st5" d="M1051.3,427.4c3.8,11.6,4.9,23.9,4.2,36.1"/>
			<path class="st5" d="M984.5,470.5c0-2.9,0.1-5.9,0.2-8.8"/>
			<path class="st5" d="M946.5,522v-14.9c0-24,17.6-35.6,32-35.6l89.8-7.8c14.4,0,26.1,19.4,26.1,43.4v8.4"/>
		</g>
		<polygon points="993.2,461.6 976,463 977,454 994,454 		"/>
		<path d="M1047.1,456h17.1c0,0,0-0.1,0-0.1v-0.4c0-0.1,0-0.2,0-0.3c0-0.1,0-0.1,0-0.2l-0.1,0h-16.9V456z"/>
		<path class="st6" d="M985.5,454.5c1.4-20.5,9.1-38.4,19.7-50.5c6.9-7.9,16.8-11.3,26.4-5c7.5,4.9,11.9,11,15.9,19.5
			c5.2,11,8,24.9,8,37"/>
	</g>
	<g>
		<line class="st7" x1="782" y1="401.6" x2="753" y2="519.1"/>
		<path class="st8" d="M720.9,398.5c116.6-0.9,116.6-0.9,116.6-0.9"/>
	</g>
</g>
</svg>
